<?xml version="1.0" standalone="no"?><!DOCTYPE svg PUBLIC "-//W3C//DTD SVG 1.1//EN" "http://www.w3.org/Graphics/SVG/1.1/DTD/svg11.dtd"><svg t="1745394839737" class="icon" viewBox="0 0 1024 1024" version="1.1" xmlns="http://www.w3.org/2000/svg" p-id="4917" xmlns:xlink="http://www.w3.org/1999/xlink" width="200" height="200"><path d="M969.536 402.944a22.4 22.4 0 0 0-22.336 22.08V273.088a22.4 22.4 0 0 0 44.736-0.128h0.064V160a22.4 22.4 0 0 0-22.4-22.4H54.4a22.528 22.528 0 0 0-22.4 22.4v604.608c0 12.288 10.112 22.4 22.4 22.4h915.2a22.4 22.4 0 0 0 22.4-22.4V425.344a22.4 22.4 0 0 0-22.464-22.4z" fill="#515151" p-id="4918" data-spm-anchor-id="a313x.search_index.0.i15.103d3a81BamzKv" class=""></path><path d="M969.6 328m-22.4 0a22.4 22.4 0 1 0 44.8 0 22.4 22.4 0 1 0-44.8 0Z" fill="#515151" p-id="4919" data-spm-anchor-id="a313x.search_index.0.i14.103d3a81BamzKv" class=""></path><path d="M77.44 631.168a0.64 0.64 0 0 1-0.64-0.64V189.376a0.64 0.64 0 0 1 0.64-0.64h869.184c0.256 0 0.64 0.256 0.64 0.64v441.152c0 0.32-0.384 0.64-0.64 0.64H77.44z" fill="#707070" p-id="4920" data-spm-anchor-id="a313x.search_index.0.i19.103d3a81BamzKv" class=""></path><path d="M77.44 740.032a0.64 0.64 0 0 1-0.64-0.64v-69.12a0.64 0.64 0 0 1 0.64-0.64h869.184c0.256 0 0.64 0.32 0.64 0.64v69.12c0 0.32-0.384 0.64-0.64 0.64H77.44z" fill="#E0E0E0" p-id="4921"></path><path d="M76.8 631.168h870.464v44.8H76.8zM637.12 875.776H386.816l19.264-88.768h211.904z" fill="#515151" p-id="4922" data-spm-anchor-id="a313x.search_index.0.i16.103d3a81BamzKv" class=""></path><path d="M431.68 875.776l19.2-88.768h122.368l19.136 88.768z" fill="#E0E0E0" p-id="4923"></path><path d="M721.984 888a16 16 0 0 1-16 16H318.016a16 16 0 0 1 0-32h388.032a16 16 0 0 1 15.936 16z" fill="#515151" p-id="4924" data-spm-anchor-id="a313x.search_index.0.i18.103d3a81BamzKv" class=""></path><path d="M512 706.688m-18.176 0a18.176 18.176 0 1 0 36.352 0 18.176 18.176 0 1 0-36.352 0Z" fill="#515151" p-id="4925" data-spm-anchor-id="a313x.search_index.0.i17.103d3a81BamzKv" class=""></path><path d="M366.272 445.76a22.464 22.464 0 0 1-31.68 0 22.464 22.464 0 0 1 0-31.68l134.272-134.272a22.464 22.464 0 0 1 31.68 0 22.464 22.464 0 0 1 0 31.68L366.272 445.76z" fill="#FFFFFF" p-id="4926"></path><path d="M407.424 540.16a22.464 22.464 0 0 1-31.68 0 22.528 22.528 0 0 1 0-31.744l67.328-67.264a22.464 22.464 0 0 1 31.68 0 22.464 22.464 0 0 1 0 31.68L407.424 540.16z" fill="#FFFFFF" p-id="4927"></path></svg>